<svg xmlns="http://www.w3.org/2000/svg" viewBox="0 0 237.95 115.03"><defs><style>.cls-1{fill:none;}.cls-2{fill:#00634c;}.cls-3{fill:#fff;}.cls-4{fill:#ed6b06;}.cls-5{fill:#cad400;}.cls-6{fill:#5f5e5e;}</style></defs><title>Logo Groupama Assicurazioni</title><g id="Fondo_Bianco_x_jpg" data-name="Fondo Bianco x jpg"><rect class="cls-1" width="237.95" height="115.03"/></g><g id="Calque_1" data-name="Calque 1"><rect class="cls-2" x="22.89" y="22.92" width="192.22" height="49.92"/><path class="cls-3" d="M116.71,45.93A4.2,4.2,0,0,0,113.46,47v-.8h-2.23v9.72h2.41V50.23a2.65,2.65,0,0,1,2.87-2.5,2.48,2.48,0,0,1,1.08.23l.14.06V46Z"/><path class="cls-3" d="M124.53,45.93c-3.54,0-5.65,1.92-5.65,5.14s2.16,5.12,5.65,5.12,5.64-1.87,5.64-5.12S128.11,45.93,124.53,45.93Zm0,8.38a3.14,3.14,0,0,1-3.32-3.24,3.05,3.05,0,0,1,3.32-3.26,3,3,0,0,1,3.31,3.26A3.11,3.11,0,0,1,124.53,54.31Z"/><path class="cls-3" d="M142.45,46.22h-2.17v5.37c0,1.79-1,2.7-3,2.7-1.08,0-2.87-.31-2.87-2.39V46.22h-2.27v6.15c0,2.45,1.8,3.86,4.94,3.86A4.41,4.41,0,0,0,140.43,55v.93h2.11V46.22Z"/><path class="cls-3" d="M151,45.93a5.13,5.13,0,0,0-3.7,1.19v-.9h-2.16V60h2.27V55a4.76,4.76,0,0,0,3.41,1.24c2.7,0,5.42-1.59,5.42-5.13C156.22,47.86,154.26,45.93,151,45.93Zm-.41,1.82a3.16,3.16,0,0,1,3.48,3.18,3.22,3.22,0,0,1-3.37,3.43,3.38,3.38,0,0,1-3.48-3.26A3.33,3.33,0,0,1,150.57,47.75Z"/><path class="cls-3" d="M183.18,45.93a4.37,4.37,0,0,0-3.61,1.65c-.74-1.19-1.75-1.65-3.67-1.65a4.07,4.07,0,0,0-3,1.07v-.78h-2.17v9.7H173V50.33a2.25,2.25,0,0,1,2.41-2.5c1.26,0,2.77.43,2.77,2.46v5.63h2.27V50.13a2.31,2.31,0,0,1,2.6-2.26c1.18,0,2.58.42,2.58,2.42v5.63h2.27V49.83C187.93,47.39,186.15,45.93,183.18,45.93Z"/><path class="cls-3" d="M92.72,48.48c0-4.75,3.9-7.71,10.19-7.71a14.77,14.77,0,0,1,3.36.33l.13,0v2l-.22-.05a11.64,11.64,0,0,0-3-.32c-4.92,0-7.42,1.88-7.42,5.59s2.47,5.74,7,5.74a23.85,23.85,0,0,0,2.42-.14h.1V49.33h-1.75V47.51H108v8.07l-.14,0a29.86,29.86,0,0,1-5.26.48C96.69,56.08,92.72,53,92.72,48.48Z"/><path class="cls-3" d="M167.65,55.92V49.87c0-2.54-.84-4.11-5-4.11a14.7,14.7,0,0,0-3,.33l-.27,0v2l.43-.12a9.27,9.27,0,0,1,2.81-.41c2.07,0,2.78.65,2.78,1.63v.49h-1.39c-2.54,0-5.91.37-5.91,3.08a2.8,2.8,0,0,0,1.75,2.45c1.15.59,2,.64,4,.64Zm-2.33-1.86a8,8,0,0,1-.92,0c-2.6,0-3.91-.19-3.91-1.2,0-1.17,2-1.34,3.15-1.34a13.62,13.62,0,0,1,1.68.08Z"/><path class="cls-3" d="M199.85,55.92V49.87c0-2.54-.84-4.11-5-4.11a14.7,14.7,0,0,0-3,.33l-.27,0v2l.43-.12a9.27,9.27,0,0,1,2.81-.41c2.07,0,2.79.65,2.79,1.63v.49h-1.4c-2.54,0-5.91.37-5.91,3.08A2.8,2.8,0,0,0,192,55.28c1.15.59,2,.64,4.05.64Zm-2.33-1.86a8,8,0,0,1-.92,0c-2.59,0-3.91-.19-3.91-1.2,0-1.17,2-1.34,3.16-1.34a13.55,13.55,0,0,1,1.67.08Z"/><path class="cls-4" d="M82.55,18.7a71.21,71.21,0,0,0-9.47-.17,40.38,40.38,0,0,0-23,8.53C43.94,32,39.63,38,38,44.87h.33c2.89-9.22,11.26-16.51,23.34-18.42a43.42,43.42,0,0,1,12.44.26Z"/><polygon class="cls-3" points="58.25 42.33 60.67 35.12 63.01 42.33 58.25 42.33"/><polygon class="cls-3" points="62.49 43.39 64.69 40.86 69.49 40.86 71.55 43.39 62.49 43.39"/><polygon class="cls-3" points="52.06 44.9 53.39 42.36 58.09 42.36 59.56 44.9 52.06 44.9"/><path class="cls-5" d="M61.36,47.52,64.19,64a29.32,29.32,0,0,0,5.66-2Z"/><path class="cls-5" d="M79.1,55.16,63.64,47.52,74.36,59.45A25.33,25.33,0,0,0,79.1,55.16Z"/><path class="cls-5" d="M68,47.52l13.28,4.55a18.6,18.6,0,0,0,1.9-4.55Z"/><path class="cls-5" d="M58.78,64.77l1.09-17.25L52.14,64.3a26.54,26.54,0,0,0,5.21.5C57.83,64.8,58.31,64.79,58.78,64.77Z"/><path class="cls-5" d="M46.64,62.46,57.71,47.52l-17,10.35A17.6,17.6,0,0,0,46.64,62.46Z"/><path class="cls-5" d="M37.6,47.52a14.14,14.14,0,0,0,.67,5.87L54.5,47.52Z"/></g><g id="Livello_3" data-name="Livello 3"><path class="cls-6" d="M111.44,81.62h2.39L118,92.16h-2.34l-.91-2.41h-4.27l-.92,2.41h-2.19Zm1.17,2.11h0l-1.53,4.35h3.08Z"/><path class="cls-6" d="M123.77,86a4.78,4.78,0,0,0-1.81-.34c-.54,0-1.19.2-1.19.86,0,1.24,3.52.46,3.52,3.27,0,1.81-1.62,2.54-3.27,2.54a8.87,8.87,0,0,1-2.29-.34l.12-1.66a4.4,4.4,0,0,0,2,.52c.52,0,1.33-.2,1.33-1,0-1.52-3.52-.48-3.52-3.29,0-1.68,1.47-2.42,3-2.42a9.19,9.19,0,0,1,2.21.29Z"/><path class="cls-6" d="M130.48,86a4.78,4.78,0,0,0-1.81-.34c-.55,0-1.2.2-1.2.86,0,1.24,3.52.46,3.52,3.27,0,1.81-1.61,2.54-3.26,2.54a9,9,0,0,1-2.3-.34l.12-1.66a4.44,4.44,0,0,0,2,.52c.51,0,1.33-.2,1.33-1,0-1.52-3.52-.48-3.52-3.29,0-1.68,1.46-2.42,3-2.42a9.19,9.19,0,0,1,2.21.29Z"/><path class="cls-6" d="M132.61,81h2V83h-2Zm0,3.35h2v7.78h-2Z"/><path class="cls-6" d="M141.81,86.06a3,3,0,0,0-1.37-.29c-1.26,0-2.06,1-2.06,2.47s.68,2.53,2.1,2.53a4.37,4.37,0,0,0,1.56-.36l.09,1.68a6.68,6.68,0,0,1-2,.26c-2.55,0-3.83-1.74-3.83-4.11s1.32-4,3.76-4a6.46,6.46,0,0,1,2,.26Z"/><path class="cls-6" d="M150.62,92.16H148.7v-1h0a3.27,3.27,0,0,1-2.55,1.24c-1.85,0-2.65-1.31-2.65-3.06V84.38h2v4.16c0,.95,0,2.23,1.31,2.23,1.47,0,1.78-1.58,1.78-2.58V84.38h2Z"/><path class="cls-6" d="M152.75,84.38h1.79v1.77h0a2.39,2.39,0,0,1,2.13-2,2.18,2.18,0,0,1,.61.06v2a2.13,2.13,0,0,0-.9-.16c-1.65,0-1.65,2-1.65,3.17v2.85h-2Z"/><path class="cls-6" d="M158.93,84.79a7,7,0,0,1,2.7-.59c2.37,0,3.35,1,3.35,3.28v1c0,.78,0,1.37,0,2s.05,1.13.09,1.73h-1.78c-.07-.4-.07-.92-.09-1.16h0a2.79,2.79,0,0,1-2.4,1.35A2.49,2.49,0,0,1,158.08,90a2.29,2.29,0,0,1,1.33-2.22,6.28,6.28,0,0,1,2.61-.45h1.12c0-1.25-.56-1.68-1.75-1.68a4.1,4.1,0,0,0-2.4.85Zm2.37,6.08a1.73,1.73,0,0,0,1.42-.7,2.6,2.6,0,0,0,.42-1.6h-.88c-.9,0-2.25.15-2.25,1.34C160,90.58,160.57,90.87,161.3,90.87Z"/><path class="cls-6" d="M166.64,84.38h6.17V86l-3.87,4.55h4v1.57h-6.47V90.52L170.42,86h-3.78Z"/><path class="cls-6" d="M174.58,81h2V83h-2Zm0,3.35h2v7.78h-2Z"/><path class="cls-6" d="M182.3,84.2a3.9,3.9,0,0,1,4.08,4.13,4.08,4.08,0,0,1-8.15,0A3.9,3.9,0,0,1,182.3,84.2Zm0,6.57c1.55,0,2-1.39,2-2.69a2,2,0,1,0-3.91,0C180.35,89.37,180.76,90.77,182.3,90.77Z"/><path class="cls-6" d="M188,84.38h1.92v1.06h0a2.91,2.91,0,0,1,2.55-1.24c1.85,0,2.65,1.3,2.65,3v4.91h-2V88c0-1,0-2.24-1.31-2.24-1.47,0-1.78,1.59-1.78,2.59v3.8h-2Z"/><path class="cls-6" d="M197.24,81h2V83h-2Zm0,3.35h2v7.78h-2Z"/></g></svg>